<?xml version="1.0" encoding="utf-8"?>
<svg xmlns="http://www.w3.org/2000/svg" version="1.1" viewBox="0 0 1000 800"><g class="all-notes"><rect ry="0" rx="0" y="0.5" x="0" height="1" width="8" class="device-note" id="device-note-000" style="fill:#000000;stroke:#000000;stroke-width:0"/><rect ry="0" rx="0" y="0.5" x="8" height="1" width="8" class="device-note" id="device-note-001" style="fill:#000000;stroke:#000000;stroke-width:0"/><rect ry="0" rx="0" y="0.5" x="16" height="1" width="8" class="device-note" id="device-note-002" style="fill:#000000;stroke:#000000;stroke-width:0"/><rect ry="0" rx="0" y="0.5" x="24" height="1" width="8" class="device-note" id="device-note-003" style="fill:#000000;stroke:#000000;stroke-width:0"/><rect ry="0" rx="0" y="0.5" x="32" height="1" width="8" class="device-note" id="device-note-004" style="fill:#000000;stroke:#000000;stroke-width:0"/><rect ry="0" rx="0" y="0.5" x="40" height="1" width="8" class="device-note" id="device-note-005" style="fill:#000000;stroke:#000000;stroke-width:0"/><rect ry="0" rx="0" y="0.5" x="48" height="1" width="8" class="device-note" id="device-note-006" style="fill:#000000;stroke:#000000;stroke-width:0"/><rect ry="0" rx="0" y="0.5" x="56" height="1" width="8" class="device-note" id="device-note-007" style="fill:#000000;stroke:#000000;stroke-width:0"/><rect ry="0" rx="0" y="0.5" x="64" height="1" width="8" class="device-note" id="device-note-008" style="fill:#000000;stroke:#000000;stroke-width:0"/><rect ry="0" rx="0" y="0.5" x="72" height="1" width="8" class="device-note" id="device-note-009" style="fill:#000000;stroke:#000000;stroke-width:0"/><rect ry="0" rx="0" y="0.5" x="80" height="1" width="8" class="device-note" id="device-note-010" style="fill:#000000;stroke:#000000;stroke-width:0"/><rect ry="0" rx="0" y="0.5" x="88" height="1" width="8" class="device-note" id="device-note-011" style="fill:#000000;stroke:#000000;stroke-width:0"/><rect ry="0" rx="0" y="0.5" x="96" height="1" width="8" class="device-note" id="device-note-012" style="fill:#000000;stroke:#000000;stroke-width:0"/><rect ry="0" rx="0" y="0.5" x="104" height="1" width="8" class="device-note" id="device-note-013" style="fill:#000000;stroke:#000000;stroke-width:0"/><rect ry="0" rx="0" y="0.5" x="112" height="1" width="8" class="device-note" id="device-note-014" style="fill:#000000;stroke:#000000;stroke-width:0"/><rect ry="0" rx="0" y="0.5" x="120" height="1" width="8" class="device-note" id="device-note-015" style="fill:#000000;stroke:#000000;stroke-width:0"/><rect ry="0" rx="0" y="0.5" x="128" height="1" width="8" class="device-note" id="device-note-016" style="fill:#000000;stroke:#000000;stroke-width:0"/><rect ry="0" rx="0" y="0.5" x="136" height="1" width="8" class="device-note" id="device-note-017" style="fill:#000000;stroke:#000000;stroke-width:0"/><rect ry="0" rx="0" y="0.5" x="144" height="1" width="8" class="device-note" id="device-note-018" style="fill:#000000;stroke:#000000;stroke-width:0"/><rect ry="0" rx="0" y="0.5" x="152" height="1" width="8" class="device-note" id="device-note-019" style="fill:#000000;stroke:#000000;stroke-width:0"/><rect ry="0" rx="0" y="0.5" x="160" height="1" width="8" class="device-note" id="device-note-020" style="fill:#000000;stroke:#000000;stroke-width:0"/><rect ry="0" rx="0" y="0.5" x="168" height="1" width="8" class="device-note" id="device-note-021" style="fill:#000000;stroke:#000000;stroke-width:0"/><rect ry="0" rx="0" y="0.5" x="176" height="1" width="8" class="device-note" id="device-note-022" style="fill:#000000;stroke:#000000;stroke-width:0"/><rect ry="0" rx="0" y="0.5" x="184" height="1" width="8" class="device-note" id="device-note-023" style="fill:#000000;stroke:#000000;stroke-width:0"/><rect ry="0" rx="0" y="0.5" x="192" height="1" width="8" class="device-note" id="device-note-024" style="fill:#000000;stroke:#000000;stroke-width:0"/><rect ry="0" rx="0" y="0.5" x="200" height="1" width="8" class="device-note" id="device-note-025" style="fill:#000000;stroke:#000000;stroke-width:0"/><rect ry="0" rx="0" y="0.5" x="208" height="1" width="8" class="device-note" id="device-note-026" style="fill:#000000;stroke:#000000;stroke-width:0"/><rect ry="0" rx="0" y="0.5" x="216" height="1" width="8" class="device-note" id="device-note-027" style="fill:#000000;stroke:#000000;stroke-width:0"/><rect ry="0" rx="0" y="0.5" x="224" height="1" width="8" class="device-note" id="device-note-028" style="fill:#000000;stroke:#000000;stroke-width:0"/><rect ry="0" rx="0" y="0.5" x="232" height="1" width="8" class="device-note" id="device-note-029" style="fill:#000000;stroke:#000000;stroke-width:0"/><rect ry="0" rx="0" y="0.5" x="240" height="1" width="8" class="device-note" id="device-note-030" style="fill:#000000;stroke:#000000;stroke-width:0"/><rect ry="0" rx="0" y="0.5" x="248" height="1" width="8" class="device-note" id="device-note-031" style="fill:#000000;stroke:#000000;stroke-width:0"/><rect ry="0" rx="0" y="0.5" x="256" height="1" width="8" class="device-note" id="device-note-032" style="fill:#000000;stroke:#000000;stroke-width:0"/><rect ry="0" rx="0" y="0.5" x="264" height="1" width="8" class="device-note" id="device-note-033" style="fill:#000000;stroke:#000000;stroke-width:0"/><rect ry="0" rx="0" y="0.5" x="272" height="1" width="8" class="device-note" id="device-note-034" style="fill:#000000;stroke:#000000;stroke-width:0"/><rect ry="0" rx="0" y="0.5" x="280" height="1" width="8" class="device-note" id="device-note-035" style="fill:#000000;stroke:#000000;stroke-width:0"/><rect ry="0" rx="0" y="0.5" x="288" height="1" width="8" class="device-note" id="device-note-036" style="fill:#000000;stroke:#000000;stroke-width:0"/><rect ry="0" rx="0" y="0.5" x="296" height="1" width="8" class="device-note" id="device-note-037" style="fill:#000000;stroke:#000000;stroke-width:0"/><rect ry="0" rx="0" y="0.5" x="304" height="1" width="8" class="device-note" id="device-note-038" style="fill:#000000;stroke:#000000;stroke-width:0"/><rect ry="0" rx="0" y="0.5" x="312" height="1" width="8" class="device-note" id="device-note-039" style="fill:#000000;stroke:#000000;stroke-width:0"/><rect ry="0" rx="0" y="0.5" x="320" height="1" width="8" class="device-note" id="device-note-040" style="fill:#000000;stroke:#000000;stroke-width:0"/><rect ry="0" rx="0" y="0.5" x="328" height="1" width="8" class="device-note" id="device-note-041" style="fill:#000000;stroke:#000000;stroke-width:0"/><rect ry="0" rx="0" y="0.5" x="336" height="1" width="8" class="device-note" id="device-note-042" style="fill:#000000;stroke:#000000;stroke-width:0"/><rect ry="0" rx="0" y="0.5" x="344" height="1" width="8" class="device-note" id="device-note-043" style="fill:#000000;stroke:#000000;stroke-width:0"/><rect ry="0" rx="0" y="0.5" x="352" height="1" width="8" class="device-note" id="device-note-044" style="fill:#000000;stroke:#000000;stroke-width:0"/><rect ry="0" rx="0" y="0.5" x="360" height="1" width="8" class="device-note" id="device-note-045" style="fill:#000000;stroke:#000000;stroke-width:0"/><rect ry="0" rx="0" y="0.5" x="368" height="1" width="8" class="device-note" id="device-note-046" style="fill:#000000;stroke:#000000;stroke-width:0"/><rect ry="0" rx="0" y="0.5" x="376" height="1" width="8" class="device-note" id="device-note-047" style="fill:#000000;stroke:#000000;stroke-width:0"/><rect ry="0" rx="0" y="0.5" x="384" height="1" width="8" class="device-note" id="device-note-048" style="fill:#000000;stroke:#000000;stroke-width:0"/><rect ry="0" rx="0" y="0.5" x="392" height="1" width="8" class="device-note" id="device-note-049" style="fill:#000000;stroke:#000000;stroke-width:0"/><rect ry="0" rx="0" y="0.5" x="400" height="1" width="8" class="device-note" id="device-note-050" style="fill:#000000;stroke:#000000;stroke-width:0"/><rect ry="0" rx="0" y="0.5" x="408" height="1" width="8" class="device-note" id="device-note-051" style="fill:#000000;stroke:#000000;stroke-width:0"/><rect ry="0" rx="0" y="0.5" x="416" height="1" width="8" class="device-note" id="device-note-052" style="fill:#000000;stroke:#000000;stroke-width:0"/><rect ry="0" rx="0" y="0.5" x="424" height="1" width="8" class="device-note" id="device-note-053" style="fill:#000000;stroke:#000000;stroke-width:0"/><rect ry="0" rx="0" y="0.5" x="432" height="1" width="8" class="device-note" id="device-note-054" style="fill:#000000;stroke:#000000;stroke-width:0"/><rect ry="0" rx="0" y="0.5" x="440" height="1" width="8" class="device-note" id="device-note-055" style="fill:#000000;stroke:#000000;stroke-width:0"/><rect ry="0" rx="0" y="0.5" x="448" height="1" width="8" class="device-note" id="device-note-056" style="fill:#000000;stroke:#000000;stroke-width:0"/><rect ry="0" rx="0" y="0.5" x="456" height="1" width="8" class="device-note" id="device-note-057" style="fill:#000000;stroke:#000000;stroke-width:0"/><rect ry="0" rx="0" y="0.5" x="464" height="1" width="8" class="device-note" id="device-note-058" style="fill:#000000;stroke:#000000;stroke-width:0"/><rect ry="0" rx="0" y="0.5" x="472" height="1" width="8" class="device-note" id="device-note-059" style="fill:#000000;stroke:#000000;stroke-width:0"/><rect ry="0" rx="0" y="0.5" x="480" height="1" width="8" class="device-note" id="device-note-060" style="fill:#000000;stroke:#000000;stroke-width:0"/><rect ry="0" rx="0" y="0.5" x="488" height="1" width="8" class="device-note" id="device-note-061" style="fill:#000000;stroke:#000000;stroke-width:0"/><rect ry="0" rx="0" y="0.5" x="496" height="1" width="8" class="device-note" id="device-note-062" style="fill:#000000;stroke:#000000;stroke-width:0"/><rect ry="0" rx="0" y="0.5" x="504" height="1" width="8" class="device-note" id="device-note-063" style="fill:#000000;stroke:#000000;stroke-width:0"/><rect ry="0" rx="0" y="0.5" x="512" height="1" width="8" class="device-note" id="device-note-064" style="fill:#000000;stroke:#000000;stroke-width:0"/><rect ry="0" rx="0" y="0.5" x="520" height="1" width="8" class="device-note" id="device-note-065" style="fill:#000000;stroke:#000000;stroke-width:0"/><rect ry="0" rx="0" y="0.5" x="528" height="1" width="8" class="device-note" id="device-note-066" style="fill:#000000;stroke:#000000;stroke-width:0"/><rect ry="0" rx="0" y="0.5" x="536" height="1" width="8" class="device-note" id="device-note-067" style="fill:#000000;stroke:#000000;stroke-width:0"/><rect ry="0" rx="0" y="0.5" x="544" height="1" width="8" class="device-note" id="device-note-068" style="fill:#000000;stroke:#000000;stroke-width:0"/><rect ry="0" rx="0" y="0.5" x="552" height="1" width="8" class="device-note" id="device-note-069" style="fill:#000000;stroke:#000000;stroke-width:0"/><rect ry="0" rx="0" y="0.5" x="560" height="1" width="8" class="device-note" id="device-note-070" style="fill:#000000;stroke:#000000;stroke-width:0"/><rect ry="0" rx="0" y="0.5" x="568" height="1" width="8" class="device-note" id="device-note-071" style="fill:#000000;stroke:#000000;stroke-width:0"/><rect ry="0" rx="0" y="0.5" x="576" height="1" width="8" class="device-note" id="device-note-072" style="fill:#000000;stroke:#000000;stroke-width:0"/><rect ry="0" rx="0" y="0.5" x="584" height="1" width="8" class="device-note" id="device-note-073" style="fill:#000000;stroke:#000000;stroke-width:0"/><rect ry="0" rx="0" y="0.5" x="592" height="1" width="8" class="device-note" id="device-note-074" style="fill:#000000;stroke:#000000;stroke-width:0"/><rect ry="0" rx="0" y="0.5" x="600" height="1" width="8" class="device-note" id="device-note-075" style="fill:#000000;stroke:#000000;stroke-width:0"/><rect ry="0" rx="0" y="0.5" x="608" height="1" width="8" class="device-note" id="device-note-076" style="fill:#000000;stroke:#000000;stroke-width:0"/><rect ry="0" rx="0" y="0.5" x="616" height="1" width="8" class="device-note" id="device-note-077" style="fill:#000000;stroke:#000000;stroke-width:0"/><rect ry="0" rx="0" y="0.5" x="624" height="1" width="8" class="device-note" id="device-note-078" style="fill:#000000;stroke:#000000;stroke-width:0"/><rect ry="0" rx="0" y="0.5" x="632" height="1" width="8" class="device-note" id="device-note-079" style="fill:#000000;stroke:#000000;stroke-width:0"/><rect ry="0" rx="0" y="0.5" x="640" height="1" width="8" class="device-note" id="device-note-080" style="fill:#000000;stroke:#000000;stroke-width:0"/><rect ry="0" rx="0" y="0.5" x="648" height="1" width="8" class="device-note" id="device-note-081" style="fill:#000000;stroke:#000000;stroke-width:0"/><rect ry="0" rx="0" y="0.5" x="656" height="1" width="8" class="device-note" id="device-note-082" style="fill:#000000;stroke:#000000;stroke-width:0"/><rect ry="0" rx="0" y="0.5" x="664" height="1" width="8" class="device-note" id="device-note-083" style="fill:#000000;stroke:#000000;stroke-width:0"/><rect ry="0" rx="0" y="0.5" x="672" height="1" width="8" class="device-note" id="device-note-084" style="fill:#000000;stroke:#000000;stroke-width:0"/><rect ry="0" rx="0" y="0.5" x="680" height="1" width="8" class="device-note" id="device-note-085" style="fill:#000000;stroke:#000000;stroke-width:0"/><rect ry="0" rx="0" y="0.5" x="688" height="1" width="8" class="device-note" id="device-note-086" style="fill:#000000;stroke:#000000;stroke-width:0"/><rect ry="0" rx="0" y="0.5" x="696" height="1" width="8" class="device-note" id="device-note-087" style="fill:#000000;stroke:#000000;stroke-width:0"/><rect ry="0" rx="0" y="0.5" x="704" height="1" width="8" class="device-note" id="device-note-088" style="fill:#000000;stroke:#000000;stroke-width:0"/><rect ry="0" rx="0" y="0.5" x="712" height="1" width="8" class="device-note" id="device-note-089" style="fill:#000000;stroke:#000000;stroke-width:0"/><rect ry="0" rx="0" y="0.5" x="720" height="1" width="8" class="device-note" id="device-note-090" style="fill:#000000;stroke:#000000;stroke-width:0"/><rect ry="0" rx="0" y="0.5" x="728" height="1" width="8" class="device-note" id="device-note-091" style="fill:#000000;stroke:#000000;stroke-width:0"/><rect ry="0" rx="0" y="0.5" x="736" height="1" width="8" class="device-note" id="device-note-092" style="fill:#000000;stroke:#000000;stroke-width:0"/><rect ry="0" rx="0" y="0.5" x="744" height="1" width="8" class="device-note" id="device-note-093" style="fill:#000000;stroke:#000000;stroke-width:0"/><rect ry="0" rx="0" y="0.5" x="752" height="1" width="8" class="device-note" id="device-note-094" style="fill:#000000;stroke:#000000;stroke-width:0"/><rect ry="0" rx="0" y="0.5" x="760" height="1" width="8" class="device-note" id="device-note-095" style="fill:#000000;stroke:#000000;stroke-width:0"/><rect ry="0" rx="0" y="0.5" x="768" height="1" width="8" class="device-note" id="device-note-096" style="fill:#000000;stroke:#000000;stroke-width:0"/><rect ry="0" rx="0" y="0.5" x="776" height="1" width="8" class="device-note" id="device-note-097" style="fill:#000000;stroke:#000000;stroke-width:0"/><rect ry="0" rx="0" y="0.5" x="784" height="1" width="8" class="device-note" id="device-note-098" style="fill:#000000;stroke:#000000;stroke-width:0"/><rect ry="0" rx="0" y="0.5" x="792" height="1" width="8" class="device-note" id="device-note-099" style="fill:#000000;stroke:#000000;stroke-width:0"/><rect ry="0" rx="0" y="0.5" x="800" height="1" width="8" class="device-note" id="device-note-100" style="fill:#000000;stroke:#000000;stroke-width:0"/><rect ry="0" rx="0" y="0.5" x="808" height="1" width="8" class="device-note" id="device-note-101" style="fill:#000000;stroke:#000000;stroke-width:0"/><rect ry="0" rx="0" y="0.5" x="816" height="1" width="8" class="device-note" id="device-note-102" style="fill:#000000;stroke:#000000;stroke-width:0"/><rect ry="0" rx="0" y="0.5" x="824" height="1" width="8" class="device-note" id="device-note-103" style="fill:#000000;stroke:#000000;stroke-width:0"/><rect ry="0" rx="0" y="0.5" x="832" height="1" width="8" class="device-note" id="device-note-104" style="fill:#000000;stroke:#000000;stroke-width:0"/><rect ry="0" rx="0" y="0.5" x="840" height="1" width="8" class="device-note" id="device-note-105" style="fill:#000000;stroke:#000000;stroke-width:0"/><rect ry="0" rx="0" y="0.5" x="848" height="1" width="8" class="device-note" id="device-note-106" style="fill:#000000;stroke:#000000;stroke-width:0"/><rect ry="0" rx="0" y="0.5" x="856" height="1" width="8" class="device-note" id="device-note-107" style="fill:#000000;stroke:#000000;stroke-width:0"/><rect ry="0" rx="0" y="0.5" x="864" height="1" width="8" class="device-note" id="device-note-108" style="fill:#000000;stroke:#000000;stroke-width:0"/><rect ry="0" rx="0" y="0.5" x="872" height="1" width="8" class="device-note" id="device-note-109" style="fill:#000000;stroke:#000000;stroke-width:0"/><rect ry="0" rx="0" y="0.5" x="880" height="1" width="8" class="device-note" id="device-note-110" style="fill:#000000;stroke:#000000;stroke-width:0"/><rect ry="0" rx="0" y="0.5" x="888" height="1" width="8" class="device-note" id="device-note-111" style="fill:#000000;stroke:#000000;stroke-width:0"/><rect ry="0" rx="0" y="0.5" x="896" height="1" width="8" class="device-note" id="device-note-112" style="fill:#000000;stroke:#000000;stroke-width:0"/><rect ry="0" rx="0" y="0.5" x="904" height="1" width="8" class="device-note" id="device-note-113" style="fill:#000000;stroke:#000000;stroke-width:0"/><rect ry="0" rx="0" y="0.5" x="912" height="1" width="8" class="device-note" id="device-note-114" style="fill:#000000;stroke:#000000;stroke-width:0"/><rect ry="0" rx="0" y="0.5" x="920" height="1" width="8" class="device-note" id="device-note-115" style="fill:#000000;stroke:#000000;stroke-width:0"/><rect ry="0" rx="0" y="0.5" x="928" height="1" width="8" class="device-note" id="device-note-116" style="fill:#000000;stroke:#000000;stroke-width:0"/><rect ry="0" rx="0" y="0.5" x="936" height="1" width="8" class="device-note" id="device-note-117" style="fill:#000000;stroke:#000000;stroke-width:0"/><rect ry="0" rx="0" y="0.5" x="944" height="1" width="8" class="device-note" id="device-note-118" style="fill:#000000;stroke:#000000;stroke-width:0"/><rect ry="0" rx="0" y="0.5" x="952" height="1" width="8" class="device-note" id="device-note-119" style="fill:#000000;stroke:#000000;stroke-width:0"/><rect ry="0" rx="0" y="0.5" x="960" height="1" width="8" class="device-note" id="device-note-120" style="fill:#000000;stroke:#000000;stroke-width:0"/><rect ry="0" rx="0" y="0.5" x="968" height="1" width="8" class="device-note" id="device-note-121" style="fill:#000000;stroke:#000000;stroke-width:0"/><rect ry="0" rx="0" y="0.5" x="976" height="1" width="8" class="device-note" id="device-note-122" style="fill:#000000;stroke:#000000;stroke-width:0"/><rect ry="0" rx="0" y="0.5" x="984" height="1" width="8" class="device-note" id="device-note-123" style="fill:#000000;stroke:#000000;stroke-width:0"/><rect ry="0" rx="0" y="0.5" x="992" height="1" width="8" class="device-note" id="device-note-124" style="fill:#000000;stroke:#000000;stroke-width:0"/></g></svg>
